<svg width="25" height="24" viewBox="0 0 25 24" fill="none" xmlns="http://www.w3.org/2000/svg">
<path d="M22.2303 17.5622C22.7593 16.487 23.0229 15.3007 22.9991 14.1026C22.9753 12.9046 22.6648 11.7297 22.0936 10.6763C21.5224 9.62295 20.7071 8.72178 19.716 8.04828C18.7249 7.37478 17.5869 6.94856 16.3972 6.8053C16.0026 5.88554 15.428 5.05406 14.7071 4.35983C13.9862 3.6656 13.1337 3.12267 12.1997 2.76303C11.2658 2.40339 10.2693 2.23431 9.26894 2.26576C8.26862 2.29721 7.28471 2.52854 6.37518 2.94614C5.46565 3.36374 4.6489 3.95915 3.97305 4.69729C3.2972 5.43543 2.77592 6.30138 2.43992 7.2441C2.10392 8.18683 1.96 9.18727 2.01663 10.1865C2.07327 11.1857 2.32931 12.1635 2.76969 13.0622L2.05156 15.5766C1.98748 15.8015 1.98468 16.0395 2.04343 16.2659C2.10219 16.4923 2.22038 16.6988 2.38577 16.8642C2.55115 17.0296 2.75773 17.1478 2.98412 17.2066C3.21052 17.2653 3.4485 17.2625 3.67344 17.1984L6.18781 16.4803C6.94654 16.8528 7.76268 17.0947 8.60188 17.1956C9.0019 18.1328 9.58872 18.9787 10.3265 19.6816C11.0643 20.3845 11.9376 20.9296 12.8931 21.2838C13.8486 21.638 14.8662 21.7937 15.8839 21.7416C16.9016 21.6894 17.8979 21.4304 18.8122 20.9803L21.3266 21.6984C21.5515 21.7625 21.7895 21.7653 22.0159 21.7066C22.2423 21.6478 22.4489 21.5296 22.6142 21.3642C22.7796 21.1988 22.8978 20.9923 22.9566 20.7659C23.0153 20.5395 23.0125 20.3015 22.9484 20.0766L22.2303 17.5622ZM6.26844 14.9278C6.19873 14.9278 6.12935 14.9373 6.06219 14.9559L3.58625 15.6637L4.29406 13.1878C4.34711 12.9992 4.32423 12.7973 4.23031 12.6253C3.5407 11.3592 3.33041 9.88707 3.63796 8.47857C3.94552 7.07006 4.75032 5.81955 5.90491 4.95617C7.05949 4.0928 8.48653 3.67439 9.92452 3.77761C11.3625 3.88084 12.7152 4.49878 13.7346 5.51821C14.754 6.53765 15.372 7.89029 15.4752 9.32828C15.5784 10.7663 15.16 12.1933 14.2966 13.3479C13.4333 14.5025 12.1827 15.3073 10.7742 15.6148C9.36573 15.9224 7.89357 15.7121 6.6275 15.0225C6.51774 14.9611 6.3942 14.9285 6.26844 14.9278ZM20.7059 17.6878L21.4138 20.1637L18.9378 19.4559C18.7492 19.4029 18.5473 19.4258 18.3753 19.5197C16.9928 20.2718 15.3702 20.4512 13.8568 20.0192C12.3433 19.5872 11.06 18.5783 10.2828 17.2097C11.3098 17.1027 12.3036 16.7847 13.2019 16.2755C14.1001 15.7663 14.8835 15.077 15.5027 14.2508C16.122 13.4246 16.5639 12.4793 16.8005 11.4742C17.0372 10.4692 17.0636 9.42604 16.8781 8.4103C17.7768 8.6221 18.6145 9.03846 19.326 9.62696C20.0375 10.2155 20.6035 10.9602 20.9801 11.8033C21.3567 12.6463 21.5336 13.5649 21.4971 14.4875C21.4606 15.4101 21.2117 16.3118 20.7697 17.1225C20.675 17.2952 20.6521 17.4983 20.7059 17.6878Z" fill="#171717"/>
</svg>
