<svg width="26" height="26" viewBox="0 0 26 26" fill="none" xmlns="http://www.w3.org/2000/svg">
<path d="M4.875 5.6875V20.3125C4.875 20.528 4.7894 20.7347 4.63702 20.887C4.48465 21.0394 4.27799 21.125 4.0625 21.125C3.84701 21.125 3.64035 21.0394 3.48798 20.887C3.3356 20.7347 3.25 20.528 3.25 20.3125V5.6875C3.25 5.47201 3.3356 5.26535 3.48798 5.11298C3.64035 4.9606 3.84701 4.875 4.0625 4.875C4.27799 4.875 4.48465 4.9606 4.63702 5.11298C4.7894 5.26535 4.875 5.47201 4.875 5.6875ZM13.4063 11.2227L11.375 11.8828V9.75C11.375 9.53451 11.2894 9.32785 11.137 9.17548C10.9847 9.0231 10.778 8.9375 10.5625 8.9375C10.347 8.9375 10.1403 9.0231 9.98798 9.17548C9.8356 9.32785 9.75 9.53451 9.75 9.75V11.8828L7.71875 11.2227C7.51377 11.1553 7.29043 11.1722 7.09787 11.2695C6.90531 11.3668 6.75929 11.5367 6.69195 11.7416C6.62461 11.9466 6.64146 12.17 6.73879 12.3625C6.83612 12.5551 7.00595 12.7011 7.21094 12.7684L9.24219 13.4276L7.98891 15.1541C7.92268 15.2402 7.87437 15.3387 7.84683 15.4437C7.8193 15.5487 7.81311 15.6582 7.82862 15.7657C7.84413 15.8732 7.88102 15.9765 7.93713 16.0695C7.99323 16.1624 8.0674 16.2432 8.15526 16.3071C8.24312 16.3709 8.34288 16.4164 8.44865 16.4411C8.55442 16.4657 8.66404 16.4688 8.77105 16.4503C8.87806 16.4319 8.98028 16.3921 9.07167 16.3335C9.16306 16.2748 9.24176 16.1984 9.30313 16.1088L10.5564 14.3823L11.8097 16.1088C11.8711 16.1984 11.9498 16.2748 12.0411 16.3335C12.1325 16.3921 12.2347 16.4319 12.3418 16.4503C12.4488 16.4688 12.5584 16.4657 12.6642 16.4411C12.7699 16.4164 12.8697 16.3709 12.9576 16.3071C13.0454 16.2432 13.1196 16.1624 13.1757 16.0695C13.2318 15.9765 13.2687 15.8732 13.2842 15.7657C13.2997 15.6582 13.2935 15.5487 13.266 15.4437C13.2384 15.3387 13.1901 15.2402 13.1239 15.1541L11.8706 13.4276L13.9019 12.7684C14.0978 12.6956 14.2581 12.55 14.3495 12.3619C14.4408 12.1739 14.4562 11.9579 14.3923 11.7588C14.3285 11.5598 14.1904 11.393 14.0068 11.2931C13.8231 11.1933 13.608 11.168 13.4063 11.2227ZM24.1719 11.7447C24.1053 11.5416 23.9613 11.3729 23.7712 11.2752C23.5811 11.1774 23.3602 11.1586 23.1563 11.2227L21.125 11.8828V9.75C21.125 9.53451 21.0394 9.32785 20.887 9.17548C20.7347 9.0231 20.528 8.9375 20.3125 8.9375C20.097 8.9375 19.8904 9.0231 19.738 9.17548C19.5856 9.32785 19.5 9.53451 19.5 9.75V11.8828L17.4688 11.2237C17.3673 11.1907 17.2602 11.178 17.1538 11.1863C17.0474 11.1947 16.9437 11.2239 16.8486 11.2723C16.7535 11.3207 16.6689 11.3874 16.5995 11.4686C16.5302 11.5497 16.4775 11.6437 16.4445 11.7452C16.4115 11.8467 16.3988 11.9537 16.4071 12.0601C16.4155 12.1665 16.4447 12.2702 16.4931 12.3653C16.5416 12.4604 16.6082 12.5451 16.6894 12.6144C16.7705 12.6838 16.8645 12.7364 16.966 12.7695L18.9973 13.4286L17.744 15.1552C17.6778 15.2412 17.6294 15.3397 17.6019 15.4447C17.5744 15.5498 17.5682 15.6593 17.5837 15.7667C17.5992 15.8742 17.6361 15.9775 17.6922 16.0705C17.7483 16.1635 17.8225 16.2442 17.9103 16.3081C17.9982 16.3719 18.098 16.4175 18.2037 16.4421C18.3095 16.4667 18.4191 16.4698 18.5261 16.4514C18.6331 16.4329 18.7354 16.3931 18.8267 16.3345C18.9181 16.2758 18.9968 16.1994 19.0582 16.1098L20.3115 14.3833L21.5648 16.1098C21.6261 16.1994 21.7048 16.2758 21.7962 16.3345C21.8876 16.3931 21.9898 16.4329 22.0968 16.4514C22.2038 16.4698 22.3135 16.4667 22.4192 16.4421C22.525 16.4175 22.6248 16.3719 22.7126 16.3081C22.8005 16.2442 22.8747 16.1635 22.9308 16.0705C22.9869 15.9775 23.0238 15.8742 23.0393 15.7667C23.0548 15.6593 23.0486 15.5498 23.0211 15.4447C22.9935 15.3397 22.9452 15.2412 22.879 15.1552L21.6257 13.4286L23.657 12.7695C23.8609 12.7015 24.0296 12.5555 24.1261 12.3634C24.2226 12.1714 24.2391 11.9489 24.1719 11.7447Z" fill="#461EE5"/>
</svg>
