<svg width="26" height="26" viewBox="0 0 26 26" fill="none" xmlns="http://www.w3.org/2000/svg">
<path d="M22.5845 16.0936L17.7999 13.9496L17.7867 13.9435C17.5383 13.8373 17.2673 13.7946 16.9983 13.8195C16.7293 13.8443 16.4707 13.9358 16.2459 14.0857C16.2195 14.1032 16.1941 14.1222 16.1698 14.1426L13.6977 16.25C12.1316 15.4893 10.5148 13.8846 9.75407 12.3388L11.8645 9.82922C11.8849 9.80383 11.9042 9.77844 11.9224 9.75102C12.0691 9.52687 12.1581 9.26994 12.1815 9.00308C12.2049 8.73623 12.1619 8.46773 12.0565 8.22148V8.2093L9.90642 3.41656C9.76701 3.09488 9.52731 2.82691 9.22309 2.65265C8.91887 2.47839 8.56645 2.4072 8.21845 2.44969C6.84224 2.63078 5.57902 3.30664 4.66471 4.35103C3.75039 5.39543 3.24752 6.73694 3.25001 8.125C3.25001 16.1891 9.81095 22.75 17.875 22.75C19.2631 22.7525 20.6046 22.2496 21.649 21.3353C22.6934 20.421 23.3692 19.1578 23.5503 17.7816C23.5929 17.4337 23.5218 17.0813 23.3478 16.7771C23.1737 16.4729 22.906 16.2332 22.5845 16.0936ZM17.875 21.125C14.4284 21.1212 11.1239 19.7504 8.68678 17.3132C6.24962 14.8761 4.87877 11.5717 4.87501 8.125C4.87119 7.13323 5.2285 6.17398 5.88021 5.42639C6.53192 4.6788 7.43347 4.19399 8.41649 4.0625C8.41609 4.06655 8.41609 4.07064 8.41649 4.07469L10.5493 8.84812L8.45001 11.3608C8.4287 11.3853 8.40935 11.4114 8.39212 11.439C8.23928 11.6735 8.14962 11.9435 8.13183 12.2229C8.11404 12.5023 8.16871 12.7815 8.29056 13.0335C9.21071 14.9155 11.1069 16.7974 13.0092 17.7166C13.263 17.8373 13.5439 17.8901 13.8242 17.8698C14.1046 17.8495 14.3749 17.7568 14.6088 17.6008C14.6348 17.5832 14.6599 17.5642 14.6839 17.5439L17.1529 15.4375L21.9263 17.5754C21.9263 17.5754 21.9345 17.5754 21.9375 17.5754C21.8076 18.5598 21.3235 19.4632 20.5758 20.1165C19.8281 20.7698 18.8679 21.1283 17.875 21.125Z" fill="#461EE5"/>
</svg>
